<?xml version="1.0" encoding="UTF-8" standalone="no"?>
<!-- Created with Inkscape (http://www.inkscape.org/) -->

<svg
   xmlns:dc="http://purl.org/dc/elements/1.1/"
   xmlns:cc="http://creativecommons.org/ns#"
   xmlns:rdf="http://www.w3.org/1999/02/22-rdf-syntax-ns#"
   xmlns:svg="http://www.w3.org/2000/svg"
   xmlns="http://www.w3.org/2000/svg"
   xmlns:sodipodi="http://sodipodi.sourceforge.net/DTD/sodipodi-0.dtd"
   xmlns:inkscape="http://www.inkscape.org/namespaces/inkscape"
   width="238.40636mm"
   height="103.18851mm"
   viewBox="0 0 844.74693 365.62857"
   id="svg4378"
   version="1.1"
   inkscape:version="0.91 r13725"
   sodipodi:docname="ptio.svg">
  <metadata
     id="metadata74">
    <rdf:RDF>
      <cc:Work
         rdf:about="">
        <dc:format>image/svg+xml</dc:format>
        <dc:type
           rdf:resource="http://purl.org/dc/dcmitype/StillImage" />
        <dc:title></dc:title>
      </cc:Work>
    </rdf:RDF>
  </metadata>
  <defs
     id="defs72" />
  <sodipodi:namedview
     pagecolor="#ffffff"
     bordercolor="#666666"
     borderopacity="1"
     objecttolerance="10"
     gridtolerance="10"
     guidetolerance="10"
     inkscape:pageopacity="0"
     inkscape:pageshadow="2"
     inkscape:window-width="1855"
     inkscape:window-height="1056"
     id="namedview70"
     showgrid="false"
     fit-margin-top="0"
     fit-margin-left="0"
     fit-margin-right="0"
     fit-margin-bottom="0"
     inkscape:zoom="0.83338569"
     inkscape:cx="584.37804"
     inkscape:cy="117.61932"
     inkscape:window-x="65"
     inkscape:window-y="24"
     inkscape:window-maximized="1"
     inkscape:current-layer="layer1" />
  <g
     id="layer1"
     transform="matrix(1.08726,0,0,1.08726,5.2585383,-212.08447)">
    <g
       id="g4321"
       style="fill:#ffffff">
      <g
         transform="matrix(1.5285419,0,0,-1.5285419,150.80363,490.69778)"
         id="g28"
         style="fill:#ffffff">
        <path
           inkscape:connector-curvature="0"
           id="path30"
           style="fill:#ffffff;fill-opacity:1;fill-rule:nonzero;stroke:none"
           d="m 0,0 0,-2.185 c -0.496,-0.296 -1.053,-0.517 -1.674,-0.666 -0.62,-0.147 -1.289,-0.221 -2.011,-0.221 -1.695,0 -3.061,0.538 -4.099,1.615 -1.035,1.074 -1.553,2.489 -1.553,4.239 0,1.761 0.535,3.201 1.609,4.315 1.07,1.119 2.446,1.674 4.117,1.674 0.607,0 1.2,-0.062 1.781,-0.19 0.579,-0.128 1.126,-0.317 1.638,-0.566 l 0,-2.016 c -0.48,0.314 -0.977,0.552 -1.488,0.715 -0.512,0.164 -1.032,0.248 -1.56,0.248 -1.232,0 -2.219,-0.388 -2.963,-1.16 -0.745,-0.771 -1.116,-1.797 -1.116,-3.078 0,-1.128 0.372,-2.07 1.122,-2.833 0.746,-0.76 1.685,-1.138 2.813,-1.138 0.568,0 1.124,0.098 1.668,0.298 C -1.171,-0.748 -0.6,-0.432 0,0" />
      </g>
      <g
         transform="matrix(1.5285419,0,0,-1.5285419,159.49523,486.33211)"
         id="g32"
         style="fill:#ffffff">
        <path
           inkscape:connector-curvature="0"
           id="path34"
           style="fill:#ffffff;fill-opacity:1;fill-rule:nonzero;stroke:none"
           d="M 0,0 C 0,-1.16 0.389,-2.143 1.165,-2.946 1.94,-3.75 2.88,-4.153 3.986,-4.153 c 1.094,0 2.027,0.403 2.795,1.207 C 7.549,-2.143 7.933,-1.16 7.933,0 7.933,1.159 7.549,2.142 6.781,2.946 6.013,3.75 5.08,4.152 3.986,4.152 2.874,4.152 1.932,3.75 1.159,2.946 0.386,2.142 0,1.159 0,0 m -1.992,0 c 0,0.808 0.149,1.571 0.445,2.289 0.295,0.713 0.727,1.352 1.295,1.912 C 0.318,4.76 0.96,5.187 1.68,5.478 2.401,5.772 3.167,5.915 3.986,5.915 4.785,5.915 5.543,5.769 6.26,5.472 6.974,5.177 7.624,4.744 8.208,4.176 8.777,3.624 9.209,2.99 9.505,2.273 9.802,1.56 9.95,0.801 9.95,0 9.95,-0.8 9.802,-1.554 9.505,-2.262 9.209,-2.97 8.777,-3.6 8.208,-4.153 7.624,-4.729 6.972,-5.169 6.245,-5.471 5.523,-5.775 4.768,-5.929 3.986,-5.929 c -0.81,0 -1.576,0.152 -2.3,0.451 -0.724,0.3 -1.368,0.73 -1.938,1.289 -0.568,0.578 -1,1.216 -1.295,1.921 -0.296,0.703 -0.445,1.459 -0.445,2.268" />
      </g>
      <g
         transform="matrix(1.5285419,0,0,-1.5285419,183.87379,486.33211)"
         id="g36"
         style="fill:#ffffff">
        <path
           inkscape:connector-curvature="0"
           id="path38"
           style="fill:#ffffff;fill-opacity:1;fill-rule:nonzero;stroke:none"
           d="m 0,0 c 0,-1.16 0.386,-2.143 1.164,-2.946 0.775,-0.804 1.715,-1.207 2.819,-1.207 1.096,0 2.028,0.403 2.797,1.207 C 7.546,-2.143 7.931,-1.16 7.931,0 7.931,1.159 7.546,2.142 6.78,2.946 6.011,3.75 5.079,4.152 3.983,4.152 2.871,4.152 1.929,3.75 1.158,2.946 0.384,2.142 0,1.159 0,0 m -1.992,0 c 0,0.808 0.147,1.571 0.443,2.289 0.295,0.713 0.729,1.352 1.294,1.912 0.57,0.559 1.213,0.986 1.933,1.277 0.721,0.294 1.49,0.437 2.305,0.437 0.8,0 1.559,-0.146 2.274,-0.443 C 6.973,5.177 7.623,4.744 8.208,4.176 8.775,3.624 9.207,2.99 9.503,2.273 9.8,1.56 9.947,0.801 9.947,0 9.947,-0.8 9.8,-1.554 9.503,-2.262 9.207,-2.97 8.775,-3.6 8.208,-4.153 7.623,-4.729 6.97,-5.169 6.246,-5.471 5.522,-5.775 4.765,-5.929 3.983,-5.929 c -0.808,0 -1.574,0.152 -2.298,0.451 -0.723,0.3 -1.37,0.73 -1.94,1.289 -0.565,0.578 -0.999,1.216 -1.294,1.921 -0.296,0.703 -0.443,1.459 -0.443,2.268" />
      </g>
      <g
         transform="matrix(1.5285419,0,0,-1.5285419,209.3286,486.33211)"
         id="g40"
         style="fill:#ffffff">
        <path
           inkscape:connector-curvature="0"
           id="path42"
           style="fill:#ffffff;fill-opacity:1;fill-rule:nonzero;stroke:none"
           d="m 0,0 c 0,-1.231 0.34,-2.221 1.021,-2.964 0.681,-0.743 1.579,-1.116 2.7,-1.116 1.094,0 1.96,0.339 2.586,1.02 0.628,0.679 0.944,1.624 0.944,2.831 0,1.353 -0.316,2.414 -0.944,3.181 C 5.681,3.719 4.805,4.105 3.685,4.105 2.541,4.105 1.641,3.739 0.985,3.011 0.328,2.284 0,1.279 0,0 m -1.812,-8.701 0,14.222 1.787,0 0,-2.064 c 0.426,0.792 0.985,1.4 1.682,1.822 0.696,0.425 1.471,0.636 2.328,0.636 1.584,0 2.858,-0.538 3.817,-1.619 C 8.761,3.217 9.241,1.784 9.241,0 9.241,-1.818 8.77,-3.258 7.83,-4.327 6.891,-5.395 5.633,-5.929 4.056,-5.929 c -0.904,0 -1.692,0.207 -2.364,0.619 -0.671,0.411 -1.22,1.026 -1.644,1.841 l 0,-5.232 -1.86,0 z" />
      </g>
      <g
         transform="matrix(1.5285419,0,0,-1.5285419,242.95239,484.38842)"
         id="g44"
         style="fill:#ffffff">
        <path
           inkscape:connector-curvature="0"
           id="path46"
           style="fill:#ffffff;fill-opacity:1;fill-rule:nonzero;stroke:none"
           d="M 0,0 C -0.064,0.969 -0.386,1.714 -0.966,2.239 -1.547,2.763 -2.34,3.024 -3.349,3.024 -4.261,3.024 -5.02,2.75 -5.628,2.202 -6.237,1.655 -6.59,0.92 -6.685,0 L 0,0 Z m 2.015,-1.525 -8.7,0 0,-0.166 c 0,-1.176 0.336,-2.126 1.007,-2.852 0.673,-0.722 1.549,-1.084 2.628,-1.084 0.738,0 1.401,0.197 1.992,0.593 0.593,0.396 1.118,0.995 1.574,1.794 L 1.943,-4.199 C 1.391,-5.193 0.688,-5.94 -0.169,-6.443 -1.025,-6.947 -2.018,-7.2 -3.146,-7.2 c -1.671,0 -3.025,0.551 -4.055,1.655 -1.034,1.105 -1.547,2.552 -1.547,4.344 0,1.722 0.511,3.128 1.535,4.225 1.024,1.096 2.34,1.644 3.949,1.644 1.624,0 2.909,-0.518 3.858,-1.558 0.947,-1.042 1.421,-2.461 1.421,-4.262 l 0,-0.373 z" />
      </g>
      <g
         transform="matrix(1.5285419,0,0,-1.5285419,253.40456,494.6781)"
         id="g48"
         style="fill:#ffffff">
        <path
           inkscape:connector-curvature="0"
           id="path50"
           style="fill:#ffffff;fill-opacity:1;fill-rule:nonzero;stroke:none"
           d="m 0,0 0,10.981 1.668,0 0,-2.281 c 0.505,0.952 1.041,1.633 1.608,2.039 0.57,0.409 1.26,0.614 2.076,0.614 0.224,0 0.441,-0.019 0.648,-0.054 0.207,-0.035 0.416,-0.089 0.624,-0.163 L 6,9.446 C 5.782,9.515 5.581,9.569 5.389,9.605 5.196,9.643 5.012,9.661 4.835,9.661 3.846,9.661 3.1,9.303 2.605,8.587 2.109,7.871 1.86,6.793 1.86,5.351 L 1.86,0 0,0 Z" />
      </g>
      <g
         transform="matrix(1.5285419,0,0,-1.5285419,282.4036,486.44476)"
         id="g52"
         style="fill:#ffffff">
        <path
           inkscape:connector-curvature="0"
           id="path54"
           style="fill:#ffffff;fill-opacity:1;fill-rule:nonzero;stroke:none"
           d="M 0,0 C 0,1.243 -0.339,2.242 -1.014,2.997 -1.69,3.752 -2.573,4.129 -3.661,4.129 -4.789,4.129 -5.668,3.782 -6.301,3.085 -6.934,2.39 -7.25,1.416 -7.25,0.17 c 0,-1.327 0.319,-2.352 0.955,-3.072 0.636,-0.721 1.539,-1.081 2.707,-1.081 1.118,0 1.997,0.351 2.634,1.051 C -0.318,-2.232 0,-1.254 0,0 m 1.823,5.594 0,-10.98 -1.823,0 0,1.991 c -0.441,-0.8 -1.004,-1.41 -1.687,-1.83 -0.684,-0.419 -1.45,-0.63 -2.297,-0.63 -1.577,0 -2.846,0.543 -3.811,1.627 -0.963,1.084 -1.446,2.518 -1.446,4.302 0,1.807 0.467,3.244 1.404,4.315 0.936,1.068 2.187,1.6 3.758,1.6 0.919,0 1.716,-0.205 2.392,-0.618 0.676,-0.412 1.222,-1.025 1.639,-1.841 l 0,2.064 1.871,0 z" />
      </g>
      <g
         transform="matrix(1.5285419,0,0,-1.5285419,294.37957,480.26028)"
         id="g56"
         style="fill:#ffffff">
        <path
           inkscape:connector-curvature="0"
           id="path58"
           style="fill:#ffffff;fill-opacity:1;fill-rule:nonzero;stroke:none"
           d="m 0,0 -2.017,0 0,1.548 2.017,0 0,4.427 1.919,0 0,-4.427 2.016,0 0,-1.548 -2.016,0 0,-9.432 L 0,-9.432 0,0 Z" />
      </g>
      <path
         inkscape:connector-curvature="0"
         id="path60"
         style="fill:#ffffff;fill-opacity:1;fill-rule:nonzero;stroke:none"
         d="m 306.81166,477.89272 2.89964,0 0,16.78492 -2.89964,0 0,-16.78492 z m -0.67714,-4.86076 c 0,-0.57626 0.20635,-1.06692 0.61294,-1.4781 0.40965,-0.40965 0.90796,-0.616 1.49644,-0.616 0.57321,0 1.0654,0.21094 1.47352,0.6267 0.41118,0.41576 0.61753,0.91713 0.61753,1.50562 0,0.57014 -0.20177,1.0608 -0.6053,1.46434 -0.40354,0.40506 -0.90031,0.60683 -1.48575,0.60683 -0.58848,0 -1.08679,-0.20177 -1.49644,-0.60683 -0.40659,-0.40354 -0.61294,-0.9049 -0.61294,-1.50256" />
      <g
         transform="matrix(1.5285419,0,0,-1.5285419,324.29069,495.72531)"
         id="g62"
         style="fill:#ffffff">
        <path
           inkscape:connector-curvature="0"
           id="path64"
           style="fill:#ffffff;fill-opacity:1;fill-rule:nonzero;stroke:none"
           d="m 0,0 -5.437,11.666 2.115,0 3.299,-7.669 3.311,7.669 2.113,0 L 0,0 Z" />
      </g>
      <g
         transform="matrix(1.5285419,0,0,-1.5285419,351.494,486.44476)"
         id="g66"
         style="fill:#ffffff">
        <path
           inkscape:connector-curvature="0"
           id="path68"
           style="fill:#ffffff;fill-opacity:1;fill-rule:nonzero;stroke:none"
           d="M 0,0 C 0,1.243 -0.339,2.242 -1.016,2.997 -1.692,3.752 -2.574,4.129 -3.662,4.129 -4.789,4.129 -5.671,3.782 -6.303,3.085 -6.933,2.39 -7.25,1.416 -7.25,0.17 c 0,-1.327 0.319,-2.352 0.955,-3.072 0.635,-0.721 1.538,-1.081 2.706,-1.081 1.119,0 1.998,0.351 2.634,1.051 C -0.319,-2.232 0,-1.254 0,0 m 1.823,5.594 0,-10.98 -1.823,0 0,1.991 c -0.441,-0.8 -1.004,-1.41 -1.687,-1.83 -0.684,-0.419 -1.45,-0.63 -2.299,-0.63 -1.576,0 -2.846,0.543 -3.81,1.627 -0.964,1.084 -1.446,2.518 -1.446,4.302 0,1.807 0.468,3.244 1.404,4.315 0.936,1.068 2.189,1.6 3.756,1.6 0.921,0 1.718,-0.205 2.395,-0.618 0.676,-0.412 1.223,-1.025 1.638,-1.841 l 0,2.064 1.872,0 z" />
      </g>
      <g
         transform="matrix(1.5285419,0,0,-1.5285419,389.95425,486.36895)"
         id="g70"
         style="fill:#ffffff">
        <path
           inkscape:connector-curvature="0"
           id="path72"
           style="fill:#ffffff;fill-opacity:1;fill-rule:nonzero;stroke:none"
           d="M 0,0 C 0,1.224 -0.341,2.211 -1.023,2.96 -1.702,3.706 -2.597,4.08 -3.709,4.08 -4.822,4.08 -5.689,3.74 -6.314,3.059 -6.939,2.379 -7.25,1.44 -7.25,0.24 c 0,-1.352 0.317,-2.408 0.947,-3.174 0.634,-0.763 1.505,-1.146 2.619,-1.146 1.152,0 2.053,0.36 2.704,1.08 C -0.327,-2.281 0,-1.281 0,0 m 1.822,9.993 0,-15.429 -1.822,0 0,1.992 c -0.434,-0.792 -0.992,-1.4 -1.679,-1.826 -0.689,-0.423 -1.458,-0.635 -2.306,-0.635 -1.577,0 -2.845,0.543 -3.81,1.627 -0.965,1.084 -1.446,2.518 -1.446,4.302 0,1.8 0.472,3.236 1.417,4.308 0.944,1.072 2.198,1.607 3.766,1.607 0.913,0 1.704,-0.204 2.379,-0.617 0.671,-0.412 1.215,-1.025 1.63,-1.842 l 0,6.513 1.871,0 z" />
      </g>
      <g
         transform="matrix(1.5285419,0,0,-1.5285419,413.50434,484.38842)"
         id="g74"
         style="fill:#ffffff">
        <path
           inkscape:connector-curvature="0"
           id="path76"
           style="fill:#ffffff;fill-opacity:1;fill-rule:nonzero;stroke:none"
           d="M 0,0 C -0.064,0.969 -0.387,1.714 -0.966,2.239 -1.548,2.763 -2.342,3.024 -3.349,3.024 -4.262,3.024 -5.019,2.75 -5.627,2.202 -6.236,1.655 -6.589,0.92 -6.685,0 L 0,0 Z m 2.015,-1.525 -8.7,0 0,-0.166 c 0,-1.176 0.336,-2.126 1.007,-2.852 0.674,-0.722 1.548,-1.084 2.629,-1.084 0.737,0 1.399,0.197 1.991,0.593 0.595,0.396 1.118,0.995 1.572,1.794 L 1.942,-4.199 C 1.391,-5.193 0.687,-5.94 -0.169,-6.443 -1.025,-6.947 -2.015,-7.2 -3.144,-7.2 c -1.674,0 -3.027,0.551 -4.059,1.655 -1.029,1.105 -1.546,2.552 -1.546,4.344 0,1.722 0.511,3.128 1.535,4.225 1.025,1.096 2.34,1.644 3.949,1.644 1.624,0 2.91,-0.518 3.857,-1.558 0.95,-1.042 1.423,-2.461 1.423,-4.262 l 0,-0.373 z" />
      </g>
      <g
         transform="matrix(1.5285419,0,0,-1.5285419,450.84509,486.44476)"
         id="g78"
         style="fill:#ffffff">
        <path
           inkscape:connector-curvature="0"
           id="path80"
           style="fill:#ffffff;fill-opacity:1;fill-rule:nonzero;stroke:none"
           d="M 0,0 C 0,1.243 -0.34,2.242 -1.014,2.997 -1.692,3.752 -2.574,4.129 -3.661,4.129 -4.79,4.129 -5.668,3.782 -6.303,3.085 -6.932,2.39 -7.249,1.416 -7.249,0.17 c 0,-1.327 0.318,-2.352 0.954,-3.072 0.636,-0.721 1.537,-1.081 2.708,-1.081 1.119,0 1.997,0.351 2.631,1.051 C -0.318,-2.232 0,-1.254 0,0 m 1.826,5.594 0,-10.98 -1.826,0 0,1.991 c -0.441,-0.8 -1.004,-1.41 -1.687,-1.83 -0.685,-0.419 -1.45,-0.63 -2.298,-0.63 -1.575,0 -2.847,0.543 -3.809,1.627 -0.965,1.084 -1.444,2.518 -1.444,4.302 0,1.807 0.465,3.244 1.4,4.315 0.937,1.068 2.188,1.6 3.757,1.6 0.921,0 1.719,-0.205 2.394,-0.618 0.675,-0.412 1.222,-1.025 1.638,-1.841 l 0,2.064 1.875,0 z" />
      </g>
      <g
         transform="matrix(1.5285419,0,0,-1.5285419,465.18878,469.47046)"
         id="g82"
         style="fill:#ffffff">
        <path
           inkscape:connector-curvature="0"
           id="path84"
           style="fill:#ffffff;fill-opacity:1;fill-rule:nonzero;stroke:none"
           d="m 0,0 0,-7.201 c 0.47,0.702 1.038,1.226 1.703,1.569 0.665,0.343 1.434,0.516 2.305,0.516 1.294,0 2.308,-0.342 3.035,-1.03 0.729,-0.691 1.091,-1.645 1.091,-2.87 l 0,-7.475 -1.919,0 0,6.467 c 0,1.111 -0.235,1.939 -0.703,2.48 -0.466,0.54 -1.189,0.809 -2.163,0.809 -0.563,0 -1.07,-0.102 -1.534,-0.307 C 1.356,-7.246 0.974,-7.536 0.672,-7.911 0.437,-8.2 0.275,-8.528 0.172,-8.895 0.071,-9.263 0.022,-9.904 0.022,-10.815 l 0,-5.676 -1.859,0 0,16.491" />
      </g>
      <g
         transform="matrix(1.5285419,0,0,-1.5285419,488.00211,486.33211)"
         id="g86"
         style="fill:#ffffff">
        <path
           inkscape:connector-curvature="0"
           id="path88"
           style="fill:#ffffff;fill-opacity:1;fill-rule:nonzero;stroke:none"
           d="m 0,0 c 0,-1.16 0.389,-2.143 1.164,-2.946 0.778,-0.804 1.719,-1.207 2.822,-1.207 1.096,0 2.027,0.403 2.795,1.207 C 7.549,-2.143 7.93,-1.16 7.93,0 7.93,1.159 7.549,2.142 6.781,2.946 6.013,3.75 5.082,4.152 3.986,4.152 2.874,4.152 1.933,3.75 1.157,2.946 0.387,2.142 0,1.159 0,0 m -1.988,0 c 0,0.808 0.144,1.571 0.442,2.289 0.294,0.713 0.727,1.352 1.295,1.912 C 0.316,4.76 0.962,5.187 1.683,5.478 2.401,5.772 3.17,5.915 3.986,5.915 4.784,5.915 5.543,5.769 6.257,5.472 6.976,5.177 7.626,4.744 8.209,4.176 8.779,3.624 9.21,2.99 9.508,2.273 9.802,1.56 9.949,0.801 9.949,0 9.949,-0.8 9.802,-1.554 9.508,-2.262 9.21,-2.97 8.779,-3.6 8.209,-4.153 7.626,-4.729 6.973,-5.169 6.245,-5.471 5.523,-5.775 4.769,-5.929 3.986,-5.929 c -0.809,0 -1.575,0.152 -2.299,0.451 -0.725,0.3 -1.371,0.73 -1.938,1.289 -0.568,0.578 -1.001,1.216 -1.295,1.921 -0.298,0.703 -0.442,1.459 -0.442,2.268" />
      </g>
      <g
         transform="matrix(1.5285419,0,0,-1.5285419,510.7274,494.6781)"
         id="g90"
         style="fill:#ffffff">
        <path
           inkscape:connector-curvature="0"
           id="path92"
           style="fill:#ffffff;fill-opacity:1;fill-rule:nonzero;stroke:none"
           d="m 0,0 0,10.981 1.669,0 0,-2.281 c 0.504,0.952 1.042,1.633 1.607,2.039 0.567,0.409 1.264,0.614 2.076,0.614 0.225,0 0.439,-0.019 0.649,-0.054 0.207,-0.035 0.417,-0.089 0.623,-0.163 L 6.001,9.446 C 5.783,9.515 5.579,9.569 5.389,9.605 5.198,9.643 5.014,9.661 4.839,9.661 3.843,9.661 3.099,9.303 2.605,8.587 2.11,7.871 1.86,6.793 1.86,5.351 L 1.86,0 0,0 Z" />
      </g>
      <g
         transform="matrix(1.5285419,0,0,-1.5285419,526.92414,494.6781)"
         id="g94"
         style="fill:#ffffff">
        <path
           inkscape:connector-curvature="0"
           id="path96"
           style="fill:#ffffff;fill-opacity:1;fill-rule:nonzero;stroke:none"
           d="m 0,0 0,10.981 1.669,0 0,-2.281 c 0.502,0.952 1.038,1.633 1.605,2.039 0.569,0.409 1.261,0.614 2.077,0.614 0.226,0 0.44,-0.019 0.65,-0.054 0.207,-0.035 0.415,-0.089 0.621,-0.163 L 6.001,9.446 C 5.782,9.515 5.579,9.569 5.385,9.605 5.194,9.643 5.011,9.661 4.837,9.661 3.843,9.661 3.099,9.303 2.604,8.587 2.11,7.871 1.861,6.793 1.861,5.351 L 1.861,0 0,0 Z" />
      </g>
      <g
         transform="matrix(1.5285419,0,0,-1.5285419,544.76696,486.33211)"
         id="g98"
         style="fill:#ffffff">
        <path
           inkscape:connector-curvature="0"
           id="path100"
           style="fill:#ffffff;fill-opacity:1;fill-rule:nonzero;stroke:none"
           d="m 0,0 c 0,-1.16 0.389,-2.143 1.165,-2.946 0.776,-0.804 1.714,-1.207 2.822,-1.207 1.095,0 2.026,0.403 2.796,1.207 C 7.549,-2.143 7.934,-1.16 7.934,0 7.934,1.159 7.549,2.142 6.783,2.946 6.013,3.75 5.082,4.152 3.987,4.152 2.875,4.152 1.931,3.75 1.161,2.946 0.387,2.142 0,1.159 0,0 m -1.991,0 c 0,0.808 0.15,1.571 0.443,2.289 0.298,0.713 0.728,1.352 1.297,1.912 C 0.316,4.76 0.962,5.187 1.682,5.478 2.4,5.772 3.168,5.915 3.987,5.915 4.785,5.915 5.543,5.769 6.258,5.472 6.975,5.177 7.625,4.744 8.209,4.176 8.777,3.624 9.209,2.99 9.506,2.273 9.8,1.56 9.951,0.801 9.951,0 9.951,-0.8 9.8,-1.554 9.506,-2.262 9.209,-2.97 8.777,-3.6 8.209,-4.153 7.625,-4.729 6.973,-5.169 6.249,-5.471 5.524,-5.775 4.772,-5.929 3.987,-5.929 c -0.809,0 -1.576,0.152 -2.3,0.451 -0.723,0.3 -1.371,0.73 -1.938,1.289 -0.569,0.578 -0.999,1.216 -1.297,1.921 -0.293,0.703 -0.443,1.459 -0.443,2.268" />
      </g>
      <g
         transform="matrix(1.5285419,0,0,-1.5285419,582.35029,499.64816)"
         id="g102"
         style="fill:#ffffff">
        <path
           inkscape:connector-curvature="0"
           id="path104"
           style="fill:#ffffff;fill-opacity:1;fill-rule:nonzero;stroke:none"
           d="m 0,0 2.003,4.332 -4.307,9.9 2.171,0 3.192,-7.885 3.385,7.885 2.065,0 L 2.087,0 0,0 Z" />
      </g>
      <g
         transform="matrix(1.5285419,0,0,-1.5285419,628.03444,490.69778)"
         id="g106"
         style="fill:#ffffff">
        <path
           inkscape:connector-curvature="0"
           id="path108"
           style="fill:#ffffff;fill-opacity:1;fill-rule:nonzero;stroke:none"
           d="m 0,0 0,-2.185 c -0.495,-0.296 -1.051,-0.517 -1.674,-0.666 -0.616,-0.147 -1.286,-0.221 -2.007,-0.221 -1.697,0 -3.065,0.538 -4.099,1.615 -1.038,1.074 -1.553,2.489 -1.553,4.239 0,1.761 0.535,3.201 1.607,4.315 1.072,1.119 2.445,1.674 4.115,1.674 0.609,0 1.202,-0.062 1.782,-0.19 0.58,-0.128 1.125,-0.317 1.638,-0.566 l 0,-2.016 c -0.479,0.314 -0.974,0.552 -1.488,0.715 -0.513,0.164 -1.031,0.248 -1.558,0.248 -1.234,0 -2.22,-0.388 -2.964,-1.16 -0.746,-0.771 -1.118,-1.797 -1.118,-3.078 0,-1.128 0.372,-2.07 1.122,-2.833 0.748,-0.76 1.687,-1.138 2.815,-1.138 0.568,0 1.124,0.098 1.668,0.298 C -1.168,-0.748 -0.597,-0.432 0,0" />
      </g>
      <g
         transform="matrix(1.5285419,0,0,-1.5285419,635.0801,494.6781)"
         id="g110"
         style="fill:#ffffff">
        <path
           inkscape:connector-curvature="0"
           id="path112"
           style="fill:#ffffff;fill-opacity:1;fill-rule:nonzero;stroke:none"
           d="m 0,0 0,10.981 1.668,0 0,-2.281 c 0.503,0.952 1.041,1.633 1.608,2.039 0.568,0.409 1.26,0.614 2.074,0.614 0.224,0 0.441,-0.019 0.648,-0.054 0.208,-0.035 0.419,-0.089 0.625,-0.163 L 5.998,9.446 C 5.784,9.515 5.579,9.569 5.388,9.605 5.195,9.643 5.012,9.661 4.837,9.661 3.844,9.661 3.099,9.303 2.603,8.587 2.104,7.871 1.861,6.793 1.861,5.351 L 1.861,0 0,0 Z" />
      </g>
      <g
         transform="matrix(1.5285419,0,0,-1.5285419,655.02726,473.30129)"
         id="g114"
         style="fill:#ffffff">
        <path
           inkscape:connector-curvature="0"
           id="path116"
           style="fill:#ffffff;fill-opacity:1;fill-rule:nonzero;stroke:none"
           d="M 0,0 4.26,0.655 5.358,-1.215 0.381,-1.198 0,0 Z m 5.308,-7.253 c -0.064,0.969 -0.384,1.714 -0.966,2.238 -0.58,0.525 -1.375,0.786 -2.383,0.786 -0.912,0 -1.67,-0.274 -2.278,-0.822 -0.609,-0.547 -0.96,-1.283 -1.057,-2.202 l 6.684,0 z m 2.018,-1.525 -8.702,0 0,-0.167 c 0,-1.176 0.334,-2.125 1.01,-2.851 0.671,-0.723 1.545,-1.085 2.627,-1.085 0.738,0 1.4,0.198 1.992,0.593 0.592,0.397 1.114,0.995 1.574,1.795 l 1.426,-0.959 c -0.552,-0.994 -1.257,-1.742 -2.112,-2.244 -0.856,-0.504 -1.848,-0.758 -2.976,-0.758 -1.672,0 -3.024,0.552 -4.057,1.655 -1.032,1.105 -1.549,2.553 -1.549,4.345 0,1.722 0.515,3.127 1.537,4.225 1.023,1.096 2.343,1.643 3.949,1.643 1.625,0 2.909,-0.518 3.858,-1.558 0.947,-1.041 1.423,-2.46 1.423,-4.261 l 0,-0.373 z" />
      </g>
      <g
         transform="matrix(1.5285419,0,0,-1.5285419,686.39523,486.36895)"
         id="g118"
         style="fill:#ffffff">
        <path
           inkscape:connector-curvature="0"
           id="path120"
           style="fill:#ffffff;fill-opacity:1;fill-rule:nonzero;stroke:none"
           d="M 0,0 C 0,1.224 -0.338,2.211 -1.02,2.96 -1.698,3.706 -2.596,4.08 -3.708,4.08 -4.821,4.08 -5.688,3.74 -6.31,3.059 -6.933,2.379 -7.244,1.44 -7.244,0.24 c 0,-1.352 0.316,-2.408 0.945,-3.174 0.634,-0.763 1.505,-1.146 2.618,-1.146 1.15,0 2.053,0.36 2.706,1.08 C -0.324,-2.281 0,-1.281 0,0 m 1.826,9.993 0,-15.429 -1.826,0 0,1.992 c -0.428,-0.792 -0.99,-1.4 -1.679,-1.826 -0.688,-0.423 -1.456,-0.635 -2.301,-0.635 -1.578,0 -2.848,0.543 -3.811,1.627 -0.967,1.084 -1.447,2.518 -1.447,4.302 0,1.8 0.474,3.236 1.415,4.308 0.943,1.072 2.199,1.607 3.769,1.607 0.91,0 1.704,-0.204 2.375,-0.617 0.675,-0.412 1.217,-1.025 1.634,-1.842 l 0,6.513 1.871,0 z" />
      </g>
      <path
         inkscape:connector-curvature="0"
         id="path122"
         style="fill:#ffffff;fill-opacity:1;fill-rule:nonzero;stroke:none"
         d="m 698.19481,477.89272 2.89201,0 0,16.78492 -2.89201,0 0,-16.78492 z m -0.68173,-4.86076 c 0,-0.57626 0.20483,-1.06692 0.61448,-1.4781 0.40965,-0.40965 0.90642,-0.616 1.49338,-0.616 0.57626,0 1.0654,0.21094 1.4781,0.6267 0.40965,0.41576 0.61448,0.91713 0.61448,1.50409 0,0.57167 -0.2033,1.06233 -0.60378,1.46587 -0.40965,0.40506 -0.90184,0.60683 -1.4888,0.60683 -0.58696,0 -1.08373,-0.20177 -1.49338,-0.60683 -0.40965,-0.40354 -0.61448,-0.9049 -0.61448,-1.50256" />
      <g
         transform="matrix(1.5285419,0,0,-1.5285419,710.58716,480.26028)"
         id="g124"
         style="fill:#ffffff">
        <path
           inkscape:connector-curvature="0"
           id="path126"
           style="fill:#ffffff;fill-opacity:1;fill-rule:nonzero;stroke:none"
           d="m 0,0 -2.015,0 0,1.548 2.015,0 0,4.427 1.919,0 0,-4.427 2.018,0 0,-1.548 -2.018,0 0,-9.432 L 0,-9.432 0,0 Z" />
      </g>
      <g
         transform="matrix(1.5285419,0,0,-1.5285419,724.56033,486.33211)"
         id="g128"
         style="fill:#ffffff">
        <path
           inkscape:connector-curvature="0"
           id="path130"
           style="fill:#ffffff;fill-opacity:1;fill-rule:nonzero;stroke:none"
           d="m 0,0 c 0,-1.16 0.389,-2.143 1.165,-2.946 0.777,-0.804 1.718,-1.207 2.822,-1.207 1.095,0 2.026,0.403 2.794,1.207 C 7.549,-2.143 7.934,-1.16 7.934,0 7.934,1.159 7.549,2.142 6.781,2.946 6.013,3.75 5.082,4.152 3.987,4.152 2.875,4.152 1.931,3.75 1.161,2.946 0.387,2.142 0,1.159 0,0 m -1.991,0 c 0,0.808 0.15,1.571 0.443,2.289 0.3,0.713 0.732,1.352 1.297,1.912 0.569,0.559 1.213,0.986 1.933,1.277 0.72,0.294 1.486,0.437 2.305,0.437 0.799,0 1.557,-0.146 2.273,-0.443 C 6.974,5.177 7.626,4.744 8.211,4.176 8.777,3.624 9.209,2.99 9.506,2.273 9.804,1.56 9.949,0.801 9.949,0 9.949,-0.8 9.804,-1.554 9.506,-2.262 9.209,-2.97 8.777,-3.6 8.211,-4.153 7.626,-4.729 6.973,-5.169 6.247,-5.471 5.523,-5.775 4.768,-5.929 3.987,-5.929 c -0.809,0 -1.576,0.152 -2.3,0.451 -0.725,0.3 -1.369,0.73 -1.938,1.289 -0.565,0.578 -0.997,1.216 -1.297,1.921 -0.293,0.703 -0.443,1.459 -0.443,2.268" />
      </g>
    </g>
    <g
       id="g132"
       transform="matrix(1.5285419,0,0,-1.5285419,488.37095,455.09926)" />
    <g
       id="g4381">
      <g
         transform="matrix(1.5285419,0,0,-1.5285419,196.58927,420.51186)"
         id="g12">
        <path
           inkscape:connector-curvature="0"
           id="path14"
           style="fill:#f47216;fill-opacity:1;fill-rule:nonzero;stroke:none"
           d="M 0,0 -99.601,-62.915 2.402,39.329 l 62.09,-61.88 -42.375,0 L 0,0 Z" />
      </g>
      <path
         inkscape:connector-curvature="0"
         id="path134"
         style="fill:#f47216;fill-opacity:1;fill-rule:nonzero;stroke:none"
         d="m 0,0 -18.577,0 0,75.323 -24.817,0 0,14.671 71.601,0 L 21.699,75.323 0,75.323 0,0 Z"
         transform="matrix(1.5285419,0,0,-1.5285419,488.37095,455.09926)" />
      <g
         transform="matrix(1.5285419,0,0,-1.5285419,576.05117,455.09926)"
         id="g136">
        <path
           inkscape:connector-curvature="0"
           id="path138"
           style="fill:#f47216;fill-opacity:1;fill-rule:nonzero;stroke:none"
           d="m 0,0 -18.984,0 0,77.173 c 0,1.15 -0.115,2.383 -0.339,3.699 -0.228,1.313 -0.567,2.546 -1.017,3.698 -0.996,2.876 -2.306,4.684 -3.934,5.424 L 0,89.994 0,0 Z" />
      </g>
      <g
         transform="matrix(1.5285419,0,0,-1.5285419,628.18194,406.67077)"
         id="g140">
        <path
           inkscape:connector-curvature="0"
           id="path142"
           style="fill:#f47216;fill-opacity:1;fill-rule:nonzero;stroke:none"
           d="m 0,0 c 1.492,-3.864 3.683,-7.233 6.578,-10.109 5.153,-5.261 11.343,-7.89 18.577,-7.89 7.232,0 13.47,2.629 18.714,7.89 5.785,5.917 8.679,13.684 8.679,23.3 0,9.78 -2.894,17.546 -8.679,23.3 -5.334,5.259 -11.573,7.89 -18.714,7.89 -7.323,0 -13.607,-2.631 -18.849,-7.89 C 0.611,30.737 -2.237,22.93 -2.237,13.068 -2.237,8.218 -1.491,3.862 0,0 m 57.566,47.832 c 9.764,-8.712 14.645,-20.26 14.645,-34.641 0,-14.466 -4.881,-26.012 -14.645,-34.642 -9.042,-7.809 -19.89,-11.711 -32.546,-11.711 -12.568,0 -23.325,3.945 -32.275,11.835 -9.764,8.464 -14.645,20.011 -14.645,34.641 0,14.464 4.881,26.012 14.645,34.642 8.767,7.724 19.528,11.588 32.275,11.588 12.836,0 23.684,-3.905 32.546,-11.712" />
      </g>
    </g>
    <g
       id="g4375">
      <path
         d="M 189.81004,349.62557 51.476998,211.29711 l 0,44.30173 85.670192,85.66561 -5.18023,8.44825 -80.489962,-80.49149 0,44.30479 63.535372,63.53537 -5.24596,8.38711 -58.289412,-58.39947 0,44.30173 41.243118,41.34705 -58.507999,93.52843 155.597923,-156.60065 z"
         style="fill:#ffffff;fill-opacity:1;fill-rule:nonzero;stroke:none"
         id="path18"
         inkscape:connector-curvature="0" />
      <g
         transform="matrix(1.5285419,0,0,-1.5285419,354.73619,385.56574)"
         id="g144"
         style="fill:#ffffff">
        <path
           inkscape:connector-curvature="0"
           id="path146"
           style="fill:#ffffff;fill-opacity:1;fill-rule:nonzero;stroke:none"
           d="m 0,0 2.848,0 c 5.876,0 10.622,1.396 14.24,4.192 3.705,2.876 5.56,6.697 5.56,11.465 0,9.779 -6.194,14.67 -18.579,14.67 L 0,30.327 0,0 Z m 4.611,44.504 c 12.114,0 21.379,-2.425 27.8,-7.274 6.598,-4.85 9.899,-11.671 9.899,-20.464 0,-9.042 -3.301,-16.396 -9.899,-22.067 -6.963,-6.083 -16.499,-9.123 -28.614,-9.123 l -3.797,0 0,-31.066 -24.137,0 c 0.542,0.41 1.129,1.067 1.763,1.972 0.631,0.904 1.173,1.93 1.627,3.083 1.173,2.629 1.763,5.258 1.763,7.889 l 0,64.229 c 0,1.233 -0.115,2.485 -0.339,3.76 -0.228,1.273 -0.567,2.485 -1.017,3.637 -0.996,2.876 -2.306,4.684 -3.934,5.424 l 28.885,0 z" />
      </g>
    </g>
  </g>
</svg>
